<svg width="25" height="21" viewBox="0 0 25 21" fill="none" xmlns="http://www.w3.org/2000/svg">
<path d="M16.8984 6.23438C18.1172 6.23438 19.1484 5.44922 19.5469 4.37109H23.6016C24.082 4.37109 24.5039 3.94922 24.5039 3.42188C24.5039 2.89453 24.082 2.48438 23.6016 2.48438H19.5469C19.1602 1.39453 18.1172 0.597656 16.8984 0.597656C15.6797 0.597656 14.625 1.39453 14.2383 2.48438H1.82812C1.30078 2.48438 0.890625 2.89453 0.890625 3.42188C0.890625 3.94922 1.30078 4.37109 1.82812 4.37109H14.25C14.6367 5.44922 15.6797 6.23438 16.8984 6.23438ZM16.8984 4.79297C16.125 4.79297 15.5273 4.18359 15.5273 3.41016C15.5273 2.63672 16.125 2.03906 16.8984 2.03906C17.6719 2.03906 18.2695 2.63672 18.2695 3.41016C18.2695 4.18359 17.6719 4.79297 16.8984 4.79297ZM1.78125 9.63281C1.30078 9.63281 0.890625 10.0547 0.890625 10.582C0.890625 11.1094 1.30078 11.5195 1.78125 11.5195H5.97656C6.36328 12.6211 7.40625 13.4062 8.625 13.4062C9.84375 13.4062 10.8867 12.6211 11.2852 11.5195H23.5547C24.082 11.5195 24.5039 11.1094 24.5039 10.582C24.5039 10.0547 24.082 9.63281 23.5547 9.63281H11.2734C10.8867 8.55469 9.84375 7.76953 8.625 7.76953C7.40625 7.76953 6.36328 8.55469 5.97656 9.63281H1.78125ZM8.625 11.9531C7.86328 11.9531 7.25391 11.3438 7.25391 10.582C7.25391 9.80859 7.86328 9.21094 8.625 9.21094C9.39844 9.21094 9.99609 9.80859 9.99609 10.582C9.99609 11.3438 9.39844 11.9531 8.625 11.9531ZM16.8984 20.5547C18.1172 20.5547 19.1602 19.7695 19.5469 18.6797H23.6016C24.082 18.6797 24.5039 18.2695 24.5039 17.7422C24.5039 17.2148 24.082 16.793 23.6016 16.793H19.5469C19.1602 15.7031 18.1172 14.9297 16.8984 14.9297C15.6797 14.9297 14.6367 15.7031 14.25 16.793H1.82812C1.30078 16.793 0.890625 17.2148 0.890625 17.7422C0.890625 18.2695 1.30078 18.6797 1.82812 18.6797H14.2383C14.6367 19.7695 15.6797 20.5547 16.8984 20.5547ZM16.8984 19.1133C16.125 19.1133 15.5273 18.5039 15.5273 17.7422C15.5273 16.957 16.125 16.3711 16.8984 16.3711C17.6719 16.3711 18.2695 16.957 18.2695 17.7422C18.2695 18.5039 17.6719 19.1133 16.8984 19.1133Z" fill="#212121"/>
</svg>
